<mxfile host="app.diagrams.net" modified="2022-03-09T10:53:21.874Z" agent="5.0 (Windows NT 10.0; Win64; x64) AppleWebKit/537.36 (KHTML, like Gecko) Chrome/98.0.4758.102 Safari/537.36" etag="FBQUqfeCz0ZpoSCkvc5U" version="14.6.13" type="github">
  <diagram id="9eZ7zXQx0JldqY3yeONc" name="Page-1">
    <mxGraphModel dx="2426" dy="1320" grid="1" gridSize="10" guides="1" tooltips="1" connect="1" arrows="1" fold="1" page="1" pageScale="1" pageWidth="3300" pageHeight="4681" math="0" shadow="0">
      <root>
        <mxCell id="0" />
        <mxCell id="1" parent="0" />
        <mxCell id="gE3DuB3gqGTkhdbQtstg-5" style="edgeStyle=orthogonalEdgeStyle;rounded=0;orthogonalLoop=1;jettySize=auto;html=1;endSize=10;strokeWidth=2;" parent="1" source="gE3DuB3gqGTkhdbQtstg-1" target="gE3DuB3gqGTkhdbQtstg-4" edge="1">
          <mxGeometry relative="1" as="geometry" />
        </mxCell>
        <mxCell id="gE3DuB3gqGTkhdbQtstg-1" value="&lt;b&gt;&lt;font style=&quot;font-size: 16px&quot;&gt;AbstractAspectJAdvice&lt;/font&gt;&lt;/b&gt;" style="rounded=1;whiteSpace=wrap;html=1;strokeWidth=2;fillWeight=4;hachureGap=8;hachureAngle=45;fillColor=#1ba1e2;sketch=1;opacity=50;" parent="1" vertex="1">
          <mxGeometry x="110" y="110" width="250" height="90" as="geometry" />
        </mxCell>
        <mxCell id="gE3DuB3gqGTkhdbQtstg-12" style="edgeStyle=orthogonalEdgeStyle;rounded=0;orthogonalLoop=1;jettySize=auto;html=1;endSize=10;strokeWidth=2;" parent="1" source="gE3DuB3gqGTkhdbQtstg-4" target="gE3DuB3gqGTkhdbQtstg-10" edge="1">
          <mxGeometry relative="1" as="geometry" />
        </mxCell>
        <mxCell id="gE3DuB3gqGTkhdbQtstg-4" value="&lt;b&gt;&lt;font style=&quot;font-size: 16px&quot;&gt;执行 @Around 方法&lt;/font&gt;&lt;/b&gt;" style="rounded=1;whiteSpace=wrap;html=1;strokeWidth=2;fillWeight=4;hachureGap=8;hachureAngle=45;sketch=1;opacity=50;fillColor=#FFB366;" parent="1" vertex="1">
          <mxGeometry x="110" y="280" width="250" height="90" as="geometry" />
        </mxCell>
        <mxCell id="jHKx3pP2fCoftvqHvmGl-1" style="edgeStyle=orthogonalEdgeStyle;rounded=0;orthogonalLoop=1;jettySize=auto;html=1;endSize=10;strokeWidth=2;" edge="1" parent="1" source="gE3DuB3gqGTkhdbQtstg-10" target="gE3DuB3gqGTkhdbQtstg-13">
          <mxGeometry relative="1" as="geometry" />
        </mxCell>
        <mxCell id="gE3DuB3gqGTkhdbQtstg-10" value="&lt;b style=&quot;font-size: 16px&quot;&gt;joinPoint.proceed() 调用下一个&lt;/b&gt;" style="rounded=1;whiteSpace=wrap;html=1;strokeWidth=2;fillWeight=4;hachureGap=8;hachureAngle=45;sketch=1;opacity=50;fillColor=#FFB366;" parent="1" vertex="1">
          <mxGeometry x="110" y="450" width="250" height="90" as="geometry" />
        </mxCell>
        <mxCell id="gE3DuB3gqGTkhdbQtstg-17" style="edgeStyle=orthogonalEdgeStyle;rounded=0;orthogonalLoop=1;jettySize=auto;html=1;endSize=10;strokeWidth=2;" parent="1" source="gE3DuB3gqGTkhdbQtstg-13" target="gE3DuB3gqGTkhdbQtstg-14" edge="1">
          <mxGeometry relative="1" as="geometry" />
        </mxCell>
        <mxCell id="gE3DuB3gqGTkhdbQtstg-13" value="&lt;span style=&quot;font-size: 16px&quot;&gt;&lt;b&gt;MethodBeforeAdviceInterceptor&lt;/b&gt;&lt;/span&gt;" style="rounded=1;whiteSpace=wrap;html=1;strokeWidth=2;fillWeight=4;hachureGap=8;hachureAngle=45;fillColor=#1ba1e2;sketch=1;opacity=50;" parent="1" vertex="1">
          <mxGeometry x="110" y="640" width="250" height="90" as="geometry" />
        </mxCell>
        <mxCell id="gE3DuB3gqGTkhdbQtstg-18" style="edgeStyle=orthogonalEdgeStyle;rounded=0;orthogonalLoop=1;jettySize=auto;html=1;entryX=0.5;entryY=0;entryDx=0;entryDy=0;endSize=10;strokeWidth=2;" parent="1" source="gE3DuB3gqGTkhdbQtstg-14" target="gE3DuB3gqGTkhdbQtstg-15" edge="1">
          <mxGeometry relative="1" as="geometry" />
        </mxCell>
        <mxCell id="gE3DuB3gqGTkhdbQtstg-14" value="&lt;b&gt;&lt;font style=&quot;font-size: 16px&quot;&gt;执行 @Before 方法&lt;/font&gt;&lt;/b&gt;" style="rounded=1;whiteSpace=wrap;html=1;strokeWidth=2;fillWeight=4;hachureGap=8;hachureAngle=45;sketch=1;opacity=50;fillColor=#FFB366;" parent="1" vertex="1">
          <mxGeometry x="110" y="820" width="250" height="90" as="geometry" />
        </mxCell>
        <mxCell id="gE3DuB3gqGTkhdbQtstg-22" style="edgeStyle=orthogonalEdgeStyle;rounded=0;orthogonalLoop=1;jettySize=auto;html=1;entryX=0;entryY=0.5;entryDx=0;entryDy=0;endSize=10;strokeWidth=2;" parent="1" source="gE3DuB3gqGTkhdbQtstg-15" target="gE3DuB3gqGTkhdbQtstg-19" edge="1">
          <mxGeometry relative="1" as="geometry" />
        </mxCell>
        <mxCell id="gE3DuB3gqGTkhdbQtstg-15" value="&lt;b style=&quot;font-size: 16px&quot;&gt;mi.proceed() 调用下一个&lt;/b&gt;" style="rounded=1;whiteSpace=wrap;html=1;strokeWidth=2;fillWeight=4;hachureGap=8;hachureAngle=45;sketch=1;opacity=50;fillColor=#FFB366;" parent="1" vertex="1">
          <mxGeometry x="110" y="980" width="250" height="90" as="geometry" />
        </mxCell>
        <mxCell id="gE3DuB3gqGTkhdbQtstg-21" style="edgeStyle=orthogonalEdgeStyle;rounded=0;orthogonalLoop=1;jettySize=auto;html=1;endSize=10;strokeWidth=2;" parent="1" source="gE3DuB3gqGTkhdbQtstg-19" target="gE3DuB3gqGTkhdbQtstg-20" edge="1">
          <mxGeometry relative="1" as="geometry" />
        </mxCell>
        <mxCell id="gE3DuB3gqGTkhdbQtstg-19" value="&lt;span style=&quot;font-size: 16px&quot;&gt;&lt;b&gt;AfterReturningAdviceInterceptor&lt;/b&gt;&lt;/span&gt;" style="rounded=1;whiteSpace=wrap;html=1;strokeWidth=2;fillWeight=4;hachureGap=8;hachureAngle=45;fillColor=#1ba1e2;sketch=1;opacity=50;" parent="1" vertex="1">
          <mxGeometry x="550" y="110" width="250" height="90" as="geometry" />
        </mxCell>
        <mxCell id="gE3DuB3gqGTkhdbQtstg-24" style="edgeStyle=orthogonalEdgeStyle;rounded=0;orthogonalLoop=1;jettySize=auto;html=1;entryX=0.5;entryY=0;entryDx=0;entryDy=0;endSize=10;strokeWidth=2;" parent="1" source="gE3DuB3gqGTkhdbQtstg-20" target="gE3DuB3gqGTkhdbQtstg-23" edge="1">
          <mxGeometry relative="1" as="geometry" />
        </mxCell>
        <mxCell id="gE3DuB3gqGTkhdbQtstg-20" value="&lt;b style=&quot;font-size: 16px&quot;&gt;mi.proceed() 调用下一个&lt;/b&gt;" style="rounded=1;whiteSpace=wrap;html=1;strokeWidth=2;fillWeight=4;hachureGap=8;hachureAngle=45;sketch=1;opacity=50;fillColor=#FFB366;" parent="1" vertex="1">
          <mxGeometry x="550" y="280" width="250" height="90" as="geometry" />
        </mxCell>
        <mxCell id="jHKx3pP2fCoftvqHvmGl-2" style="edgeStyle=orthogonalEdgeStyle;rounded=0;orthogonalLoop=1;jettySize=auto;html=1;endSize=10;strokeWidth=2;" edge="1" parent="1" source="gE3DuB3gqGTkhdbQtstg-23" target="gE3DuB3gqGTkhdbQtstg-25">
          <mxGeometry relative="1" as="geometry" />
        </mxCell>
        <mxCell id="gE3DuB3gqGTkhdbQtstg-23" value="&lt;b style=&quot;font-size: 16px&quot;&gt;此时没有下一个拦截器&lt;/b&gt;" style="rounded=1;whiteSpace=wrap;html=1;strokeWidth=2;fillWeight=4;hachureGap=8;hachureAngle=45;sketch=1;opacity=50;fillColor=#FF3333;" parent="1" vertex="1">
          <mxGeometry x="550" y="450" width="250" height="90" as="geometry" />
        </mxCell>
        <mxCell id="gE3DuB3gqGTkhdbQtstg-29" style="edgeStyle=orthogonalEdgeStyle;rounded=0;orthogonalLoop=1;jettySize=auto;html=1;entryX=0.5;entryY=0;entryDx=0;entryDy=0;endSize=10;strokeWidth=2;" parent="1" source="gE3DuB3gqGTkhdbQtstg-25" target="gE3DuB3gqGTkhdbQtstg-28" edge="1">
          <mxGeometry relative="1" as="geometry" />
        </mxCell>
        <mxCell id="gE3DuB3gqGTkhdbQtstg-25" value="&lt;span style=&quot;font-size: 16px&quot;&gt;&lt;b&gt;执行被代理方法&lt;/b&gt;&lt;/span&gt;" style="rounded=1;whiteSpace=wrap;html=1;strokeWidth=2;fillWeight=4;hachureGap=8;hachureAngle=45;sketch=1;opacity=50;fillColor=#99FFCC;" parent="1" vertex="1">
          <mxGeometry x="550" y="640" width="250" height="90" as="geometry" />
        </mxCell>
        <mxCell id="gE3DuB3gqGTkhdbQtstg-31" style="edgeStyle=orthogonalEdgeStyle;rounded=0;orthogonalLoop=1;jettySize=auto;html=1;entryX=0;entryY=0.5;entryDx=0;entryDy=0;endSize=10;strokeWidth=2;" parent="1" source="gE3DuB3gqGTkhdbQtstg-28" target="gE3DuB3gqGTkhdbQtstg-30" edge="1">
          <mxGeometry relative="1" as="geometry" />
        </mxCell>
        <mxCell id="gE3DuB3gqGTkhdbQtstg-28" value="&lt;span style=&quot;font-size: 16px&quot;&gt;&lt;b&gt;完成之后返回&lt;/b&gt;&lt;/span&gt;" style="rounded=1;whiteSpace=wrap;html=1;strokeWidth=2;fillWeight=4;hachureGap=8;hachureAngle=45;sketch=1;opacity=50;fillColor=#FF3333;" parent="1" vertex="1">
          <mxGeometry x="550" y="980" width="250" height="90" as="geometry" />
        </mxCell>
        <mxCell id="gE3DuB3gqGTkhdbQtstg-33" style="edgeStyle=orthogonalEdgeStyle;rounded=0;orthogonalLoop=1;jettySize=auto;html=1;endSize=10;strokeWidth=2;" parent="1" source="gE3DuB3gqGTkhdbQtstg-30" target="gE3DuB3gqGTkhdbQtstg-32" edge="1">
          <mxGeometry relative="1" as="geometry" />
        </mxCell>
        <mxCell id="gE3DuB3gqGTkhdbQtstg-30" value="&lt;span style=&quot;font-size: 16px&quot;&gt;&lt;b&gt;AfterReturningAdviceInterceptor&lt;/b&gt;&lt;/span&gt;" style="rounded=1;whiteSpace=wrap;html=1;strokeWidth=2;fillWeight=4;hachureGap=8;hachureAngle=45;fillColor=#1ba1e2;sketch=1;opacity=50;" parent="1" vertex="1">
          <mxGeometry x="1020" y="110" width="250" height="90" as="geometry" />
        </mxCell>
        <mxCell id="gE3DuB3gqGTkhdbQtstg-36" style="edgeStyle=orthogonalEdgeStyle;rounded=0;orthogonalLoop=1;jettySize=auto;html=1;entryX=0.5;entryY=0;entryDx=0;entryDy=0;endSize=10;strokeWidth=2;" parent="1" source="gE3DuB3gqGTkhdbQtstg-32" target="gE3DuB3gqGTkhdbQtstg-35" edge="1">
          <mxGeometry relative="1" as="geometry" />
        </mxCell>
        <mxCell id="gE3DuB3gqGTkhdbQtstg-32" value="&lt;b&gt;&lt;font style=&quot;font-size: 16px&quot;&gt;执行 @AfterReturning 方法&lt;/font&gt;&lt;/b&gt;" style="rounded=1;whiteSpace=wrap;html=1;strokeWidth=2;fillWeight=4;hachureGap=8;hachureAngle=45;sketch=1;opacity=50;fillColor=#FFB366;" parent="1" vertex="1">
          <mxGeometry x="1020" y="280" width="250" height="90" as="geometry" />
        </mxCell>
        <mxCell id="jHKx3pP2fCoftvqHvmGl-3" style="edgeStyle=orthogonalEdgeStyle;rounded=0;orthogonalLoop=1;jettySize=auto;html=1;endSize=10;strokeWidth=2;" edge="1" parent="1" source="gE3DuB3gqGTkhdbQtstg-35" target="gE3DuB3gqGTkhdbQtstg-37">
          <mxGeometry relative="1" as="geometry" />
        </mxCell>
        <mxCell id="gE3DuB3gqGTkhdbQtstg-35" value="&lt;span style=&quot;font-size: 16px&quot;&gt;&lt;b&gt;返回上一个拦截器&lt;/b&gt;&lt;/span&gt;" style="rounded=1;whiteSpace=wrap;html=1;strokeWidth=2;fillWeight=4;hachureGap=8;hachureAngle=45;sketch=1;opacity=50;fillColor=#FF3333;" parent="1" vertex="1">
          <mxGeometry x="1020" y="450" width="250" height="90" as="geometry" />
        </mxCell>
        <mxCell id="gE3DuB3gqGTkhdbQtstg-40" style="edgeStyle=orthogonalEdgeStyle;rounded=0;orthogonalLoop=1;jettySize=auto;html=1;entryX=0.5;entryY=0;entryDx=0;entryDy=0;endSize=10;strokeWidth=2;" parent="1" source="gE3DuB3gqGTkhdbQtstg-37" target="gE3DuB3gqGTkhdbQtstg-39" edge="1">
          <mxGeometry relative="1" as="geometry" />
        </mxCell>
        <mxCell id="gE3DuB3gqGTkhdbQtstg-37" value="&lt;span style=&quot;font-size: 16px&quot;&gt;&lt;b&gt;MethodBeforeAdviceInterceptor&lt;/b&gt;&lt;/span&gt;" style="rounded=1;whiteSpace=wrap;html=1;strokeWidth=2;fillWeight=4;hachureGap=8;hachureAngle=45;fillColor=#1ba1e2;sketch=1;opacity=50;" parent="1" vertex="1">
          <mxGeometry x="1020" y="640" width="250" height="90" as="geometry" />
        </mxCell>
        <mxCell id="gE3DuB3gqGTkhdbQtstg-42" style="edgeStyle=orthogonalEdgeStyle;rounded=0;orthogonalLoop=1;jettySize=auto;html=1;exitX=0.5;exitY=1;exitDx=0;exitDy=0;entryX=0.5;entryY=0;entryDx=0;entryDy=0;endSize=10;strokeWidth=2;" parent="1" source="gE3DuB3gqGTkhdbQtstg-39" target="gE3DuB3gqGTkhdbQtstg-41" edge="1">
          <mxGeometry relative="1" as="geometry" />
        </mxCell>
        <mxCell id="gE3DuB3gqGTkhdbQtstg-39" value="&lt;b&gt;&lt;font style=&quot;font-size: 16px&quot;&gt;执行&amp;nbsp;&lt;/font&gt;&lt;/b&gt;&lt;b style=&quot;font-size: 16px&quot;&gt;joinPoint.proceed() 后续代码&lt;/b&gt;" style="rounded=1;whiteSpace=wrap;html=1;strokeWidth=2;fillWeight=4;hachureGap=8;hachureAngle=45;sketch=1;opacity=50;fillColor=#FFB366;" parent="1" vertex="1">
          <mxGeometry x="1020" y="820" width="250" height="90" as="geometry" />
        </mxCell>
        <mxCell id="gE3DuB3gqGTkhdbQtstg-41" value="&lt;font style=&quot;font-size: 20px&quot;&gt;结束&lt;/font&gt;" style="rhombus;whiteSpace=wrap;html=1;strokeWidth=2;fillWeight=-1;hachureGap=8;fillStyle=cross-hatch;sketch=1;opacity=50;fillColor=#FF99FF;" parent="1" vertex="1">
          <mxGeometry x="1015" y="965" width="260" height="105" as="geometry" />
        </mxCell>
      </root>
    </mxGraphModel>
  </diagram>
</mxfile>
